<svg width="26" height="26" viewBox="0 0 26 26" fill="none" xmlns="http://www.w3.org/2000/svg">
<circle cx="13" cy="13" r="12.25" stroke="#5372E7" stroke-width="1.5"/>
<path d="M9.78161 12.1827L13 9.86213L16.2184 12.1827L15.2528 16.3125H10.7471L9.78161 12.1827Z" stroke="#5372E7" stroke-width="1.5"/>
<path d="M17.0624 1.13333L12.9999 4.0625L8.93744 1.13333" stroke="#5372E7" stroke-width="1.5"/>
<path d="M23.2613 20.2123L18.2529 20.2305L16.688 24.9881" stroke="#5372E7" stroke-width="1.5"/>
<path d="M9.3113 24.9882L7.74639 20.2305L2.73803 20.2124" stroke="#5372E7" stroke-width="1.5"/>
<path d="M2.96949 5.46931L4.49991 10.2381L0.458726 13.1966" stroke="#5372E7" stroke-width="1.5"/>
<path d="M25.5413 13.1966L21.5001 10.2381L23.0305 5.46929" stroke="#5372E7" stroke-width="1.5"/>
<path d="M13 4.0625V9.74992" stroke="#5372E7" stroke-width="1.5"/>
<path d="M16.25 12.1875L21.9375 10.1562" stroke="#5372E7" stroke-width="1.5"/>
<path d="M15.4234 16.6562L18.2671 20.3125" stroke="#5372E7" stroke-width="1.5"/>
<path d="M10.5625 16.25L7.70464 20.3125" stroke="#5372E7" stroke-width="1.5"/>
<path d="M9.74998 12.1875L4.45464 10.1562" stroke="#5372E7" stroke-width="1.5"/>
</svg>
