<svg width="20" height="18" viewBox="0 0 20 18" fill="none" xmlns="http://www.w3.org/2000/svg">
<path d="M10.6744 2.19531L4.87763 6.86292C4.56922 7.11124 4.43639 7.51816 4.53887 7.90062L5.26115 10.5962C5.36558 10.9859 5.69399 11.2747 6.09389 11.3285L13.4046 12.3109C14.1121 12.406 14.6885 11.7505 14.5037 11.061L12.2675 2.71538C12.0805 2.01726 11.2374 1.74203 10.6744 2.19531Z" stroke="#5372E7" stroke-width="1.2"/>
<path d="M1.97312 7.91318L3.4046 7.52962C3.93807 7.38667 4.4864 7.70326 4.62934 8.23672L5.17501 10.2732C5.31795 10.8066 5.00137 11.355 4.4679 11.4979L3.03643 11.8815C2.50296 12.0244 1.95462 11.7078 1.81168 11.1744L1.26602 9.13792C1.12308 8.60446 1.43966 8.05612 1.97312 7.91318Z" stroke="#5372E7" stroke-width="1.2"/>
<path d="M4.32186 11.537L4.66541 11.4449C5.19887 11.302 5.74721 11.6185 5.89015 12.152L6.7716 15.4416C6.91454 15.9751 6.59796 16.5234 6.06449 16.6664L5.72095 16.7584C5.18748 16.9013 4.63914 16.5848 4.4962 16.0513L3.61476 12.7617C3.47182 12.2282 3.7884 11.6799 4.32186 11.537Z" stroke="#5372E7" stroke-width="1.2"/>
<path d="M15.4386 5.64819L17.8127 5.01205" stroke="#5372E7" stroke-width="1.2" stroke-linecap="round"/>
<path d="M14.767 3.14189L16.4873 1.33783" stroke="#5372E7" stroke-width="1.2" stroke-linecap="round"/>
<path d="M18.5019 8.85687L16.1101 8.15464" stroke="#5372E7" stroke-width="1.2" stroke-linecap="round"/>
</svg>
